<svg id="Layer_1" enable-background="new 0 0 512 512" height="512" viewBox="0 0 512 512" width="512" xmlns="http://www.w3.org/2000/svg"><g id="Layer_2_00000087399069889065443050000017915013608040169638_"><g id="InterfaceIcon"><path id="_01.Home" d="m493.2 195.6-182.9-153.2c-31.4-26.3-77.2-26.3-108.6 0l-182.9 153.2c-22.2 18.6-25.1 51.7-6.5 73.8 9.2 11 22.5 17.7 36.7 18.6v149c0 28.8 23.4 52.2 52.3 52.3h112.4v-129c0-23.3 18.9-42.2 42.2-42.2s42.2 18.9 42.2 42.2v129.1h112.5c28.8 0 52.2-23.4 52.3-52.3v-149c28.9-1.9 50.8-26.9 48.9-55.8-1-14.2-7.7-27.5-18.6-36.7zm-33.7 72.6h-16.6v168.9c0 17.8-14.4 32.3-32.3 32.3h-92.5v-109.1c0-34.4-27.9-62.2-62.2-62.2-34.4 0-62.2 27.9-62.2 62.2v109.1h-92.4c-17.8 0-32.3-14.4-32.3-32.2v-169h-16.5c-30.3 0-44-37.8-20.8-57.3l182.9-153.2c24-20.1 58.9-20.1 82.9 0l182.8 153.3c23.2 19.4 9.5 57.2-20.8 57.2z"/></g></g></svg>